              <svg
                width="20"
                height="20"
                viewBox="0 0 48 48"
                fill="none"
                xmlns="http://www.w3.org/2000/svg"
              >
                <path
                  d="M23.9992 4.80005C21.4531 4.80005 19.0113 5.81147 17.211 7.61182C15.4106 9.41217 14.3992 11.854 14.3992 14.4C14.3992 16.9461 15.4106 19.3879 17.211 21.1883C19.0113 22.9886 21.4531 24 23.9992 24C26.5453 24 28.9871 22.9886 30.7874 21.1883C32.5878 19.3879 33.5992 16.9461 33.5992 14.4C33.5992 11.854 32.5878 9.41217 30.7874 7.61182C28.9871 5.81147 26.5453 4.80005 23.9992 4.80005ZM16.7992 14.4C16.7992 12.4905 17.5578 10.6591 18.9081 9.30888C20.2583 7.95862 22.0897 7.20005 23.9992 7.20005C25.9088 7.20005 27.7401 7.95862 29.0904 9.30888C30.4407 10.6591 31.1992 12.4905 31.1992 14.4C31.1992 16.3096 30.4407 18.141 29.0904 19.4912C27.7401 20.8415 25.9088 21.6 23.9992 21.6C22.0897 21.6 20.2583 20.8415 18.9081 19.4912C17.5578 18.141 16.7992 16.3096 16.7992 14.4ZM12.0208 26.4C11.3887 26.3975 10.7624 26.5198 10.1777 26.7599C9.59296 26.9999 9.06139 27.353 8.61344 27.799C8.16549 28.2449 7.80998 28.7749 7.5673 29.3585C7.32461 29.9422 7.19953 30.568 7.19922 31.2001C7.19922 35.2584 9.19842 38.3185 12.3232 40.3129C15.4 42.2737 19.5472 43.2001 23.9992 43.2001C24.856 43.2001 25.7032 43.1665 26.5336 43.0969C26.3507 42.3028 26.3548 41.4771 26.5456 40.6848C25.7224 40.7617 24.8728 40.8 23.9992 40.8C19.8352 40.8 16.1824 39.9264 13.6144 38.2873C11.0944 36.6793 9.59922 34.344 9.59922 31.2001C9.59922 29.8729 10.6744 28.8 12.0208 28.8H34.8544C34.8283 28.1685 34.9303 27.5383 35.1544 26.9472L35.3608 26.4H12.0208ZM37.4008 27.7968L38.08 25.9968C38.6992 24.3624 40.6288 23.556 42.256 24.2496L43.1872 24.6481C44.3224 25.1329 45.2608 26.0112 45.46 27.192C46.5568 33.732 40.8808 43.0345 34.348 45.4081C33.1672 45.8353 31.8928 45.5041 30.88 44.8176L30.0496 44.2536C29.7087 44.024 29.4216 43.7231 29.2083 43.3718C28.9949 43.0205 28.8603 42.627 28.8138 42.2186C28.7672 41.8102 28.8098 41.3965 28.9387 41.0062C29.0675 40.6159 29.2795 40.2581 29.56 39.9576L30.868 38.5009C31.1747 38.1617 31.5666 37.9109 32.003 37.7745C32.4394 37.6382 32.9044 37.6213 33.3496 37.7257L36.2896 38.4217C38.62 36.9649 39.8704 34.9177 40.0384 32.2777L37.9312 30.2161C37.6157 29.909 37.3973 29.5161 37.303 29.086C37.2087 28.656 37.2427 28.2077 37.4008 27.7968Z"
                  fill="white"
                />
              </svg>