<svg width="14" height="14" viewBox="0 0 17 16" fill="none" xmlns="http://www.w3.org/2000/svg">
<path d="M0.67041 8.0011C0.67041 12.1433 4.02816 15.5011 8.17041 15.5011C12.3127 15.5011 15.6704 12.1433 15.6704 8.0011C15.6704 3.85885 12.3127 0.501099 8.17041 0.501099C4.02816 0.501099 0.67041 3.85885 0.67041 8.0011Z" stroke="white" stroke-opacity="0.5" stroke-linecap="round" stroke-linejoin="round"/>
<path d="M8.92032 0.538574C8.92032 0.538574 11.1703 3.50107 11.1703 8.00107C11.1703 12.5011 8.92032 15.4636 8.92032 15.4636M7.42032 15.4636C7.42032 15.4636 5.17032 12.5011 5.17032 8.00107C5.17032 3.50107 7.42032 0.538574 7.42032 0.538574M1.14282 10.6261H15.1978M1.14282 5.37607H15.1978" stroke="white" stroke-opacity="0.5" stroke-linecap="round" stroke-linejoin="round"/>
</svg>
