<svg width="17" height="18" viewBox="0 0 19 18" fill="none" xmlns="http://www.w3.org/2000/svg">
<path d="M6.29492 2.25C6.66992 2.25 8.16992 5.625 8.16992 6C8.16992 6.75 7.04492 7.5 6.66992 8.25C6.29492 9 7.04492 9.75 7.79492 10.5C8.09065 10.7957 9.29492 12 10.0449 11.625C10.7949 11.25 11.5449 10.125 12.2949 10.125C12.6699 10.125 16.0449 11.625 16.0449 12C16.0449 13.5 14.9199 14.625 13.7949 15C12.6699 15.375 11.9199 15.375 10.4199 15C8.91992 14.625 7.79492 14.25 5.91992 12.375C4.04492 10.5 3.66992 9.375 3.29492 7.875C2.91992 6.375 2.91992 5.625 3.29492 4.5C3.66992 3.375 4.79492 2.25 6.29492 2.25Z" stroke="white" stroke-linecap="round" stroke-linejoin="round"/>
<path d="M10.7949 5.28308C11.2905 5.51056 11.7377 5.82544 12.1167 6.20797C12.4859 6.58056 12.7904 7.01732 13.0119 7.50005" stroke="white" stroke-linecap="round" stroke-linejoin="round"/>
<path d="M15.8559 6.74994C15.5855 5.69939 15.0377 4.76019 14.2953 4.01507C13.5477 3.26477 12.6028 2.71124 11.5449 2.43896" stroke="white" stroke-linecap="round" stroke-linejoin="round"/>
</svg>
