<svg width="48" height="32" viewBox="0 0 48 32" fill="none" xmlns="http://www.w3.org/2000/svg">
<path d="M46.941 5.01087C46.6657 4.04229 46.1286 3.15927 45.3832 2.44976C44.6378 1.74026 43.7101 1.22902 42.6926 0.966962C38.9673 0 23.9758 0 23.9758 0C23.9758 0 8.98362 0.0293442 5.25893 0.996306C4.24146 1.2584 3.31387 1.76966 2.56853 2.47917C1.82319 3.18867 1.28611 4.07166 1.01078 5.04022C-0.115998 11.3408 -0.553144 20.9409 1.0416 26.9891C1.31694 27.9577 1.85402 28.8407 2.59936 29.5502C3.34469 30.2597 4.27228 30.7709 5.28976 31.033C9.01474 32 24.0066 32 24.0066 32C24.0066 32 38.9984 32 42.7234 31.033C43.7409 30.7709 44.6685 30.2597 45.4138 29.5502C46.1592 28.8407 46.6962 27.9577 46.9716 26.9891C48.1597 20.6798 48.5261 11.0857 46.9408 5.01115" fill="#FF0000"/>
<path d="M19.4902 22.8572L31.927 16.0001L19.4902 9.14282V22.8572Z" fill="white"/>
</svg>
